<svg xmlns="http://www.w3.org/2000/svg" viewBox="0 0 242.77 237.3" width="80"><path fill="#e5173f" d="M105.5 188a6.06 6.06 0 00-6.1 6.1 5.82 5.82 0 001.8 4.3 6.41 6.41 0 004.3 1.8 5.82 5.82 0 004.3-1.8 6 6 0 001.8-4.3 5.82 5.82 0 00-1.8-4.3 6 6 0 00-4.3-1.8m-30.8 6.1a5.32 5.32 0 00-5.3 5.5V231a6 6 0 001.6 4 5.14 5.14 0 003.7 1.5 5 5 0 003.7-1.5 5.58 5.58 0 001.6-4v-31.4a6 6 0 00-1.6-4 5.39 5.39 0 00-3.7-1.5m15.4 0a5.32 5.32 0 00-5.3 5.5V231a5.76 5.76 0 001.6 4 5.14 5.14 0 003.7 1.5 5 5 0 003.7-1.5 5.58 5.58 0 001.6-4v-31.4a6 6 0 00-1.6-4 5.21 5.21 0 00-3.7-1.5m15.4 11.2a5.32 5.32 0 00-5.3 5.5v20.3a5.76 5.76 0 001.6 4 5.14 5.14 0 003.7 1.5 5 5 0 003.7-1.5 5.58 5.58 0 001.6-4v-20.3a6 6 0 00-1.6-4 4.82 4.82 0 00-3.7-1.5m-55.4-.1a16 16 0 00-16 16 15.88 15.88 0 004.7 11.3 16.06 16.06 0 0011.3 4.7 15.88 15.88 0 0011.3-4.7 16.06 16.06 0 004.7-11.3 16 16 0 00-16-16m0 21.9a5.66 5.66 0 01-4.1-1.7 5.79 5.79 0 010-8.2 5.66 5.66 0 014.1-1.7 5.8 5.8 0 010 11.6m81.4-21.2a13 13 0 00-4.9 1v-9.6a5.55 5.55 0 00-5.6-5.9 5.36 5.36 0 00-5.4 5.6v24.4c0 10.5 6.9 15.8 15.9 15.8a15.79 15.79 0 0015.8-15.9c0-8.7-6.9-15.4-15.8-15.4m0 21.3a5.85 5.85 0 115.9-5.9 6 6 0 01-5.9 5.9M30.9 197v25.1c0 9.5-6.6 15.2-15.3 15.2-7.5 0-13-4.1-15.2-10A6.56 6.56 0 010 225a4.73 4.73 0 014.9-4.9c6 0 4.7 7 10.5 7 2.9 0 4.6-2.2 4.6-5.2v-25a5.28 5.28 0 015.4-5.5 5.33 5.33 0 015.5 5.6m148.6 23.3a15.46 15.46 0 00-4.1-10.8 14.47 14.47 0 00-10.6-4.2c-8.7 0-15.1 6.7-15.3 15.7a27.75 27.75 0 00.4 4 28.58 28.58 0 001 2.9 15.38 15.38 0 007.3 7.6 19.81 19.81 0 0012.2 1.3 13.79 13.79 0 005.1-2.2 4.79 4.79 0 002.1-4.8 3.33 3.33 0 00-3.6-2.8 11.14 11.14 0 00-1.7.2 17.84 17.84 0 01-5.3 1.1c-3 .1-4.8-.7-5.8-1.6a3.44 3.44 0 01-1.4-2h13c2.8 0 6.7-.1 6.7-4.4m-14.5-6.9a5 5 0 015.2 4.5h-10.5a5.11 5.11 0 015.3-4.5m46.8 6.9a15.46 15.46 0 00-4.1-10.8 14.47 14.47 0 00-10.6-4.2c-8.7 0-15.2 6.7-15.3 15.7a27.75 27.75 0 00.4 4 28.58 28.58 0 001 2.9 15.38 15.38 0 007.3 7.6 19.81 19.81 0 0012.2 1.3 13.79 13.79 0 005.1-2.2 4.79 4.79 0 002.1-4.8 3.33 3.33 0 00-3.6-2.8 11.14 11.14 0 00-1.7.2 17.84 17.84 0 01-5.3 1.1c-3 .1-4.8-.7-5.8-1.6a3.44 3.44 0 01-1.4-2h13c2.7 0 6.7-.1 6.7-4.4m-14.6-6.9a5 5 0 015.2 4.5h-10.5a5.11 5.11 0 015.3-4.5"/><path fill="#fff" d="M240.7 120.2a14.65 14.65 0 00-13.8-9.8 52.29 52.29 0 00-5.2-21.4c-4.7-9.7-19.1-31.1-52.9-32.2l-4.8-.1c-1.4-4.2-3.3-11.4-3.4-11.7 5.9-3.5 17-12 15.4-25.9-.7-6.4-6.6-19-21.8-19.1-16.1-.1-36.6 14.3-42.9 34.6-15.5 2.4-39.5 10.9-38.8 29C73 77.7 85.3 82.8 94.4 83a22.9 22.9 0 0011.8-3l3.6 4c-4.5 5.6-8.8 15.8-10.3 25.2a57.1 57.1 0 003.3 28.5l.4.9-.8.6c-6.5 5.1-8.3 11.3-7.7 17.6 2.9 29.8 45.3 33.1 52.2 34.1 5.1.8 26.3 2.6 26.3 2.6a34.27 34.27 0 0016.3 1.2c14.6-2.6 18.8-10.8 21.1-14.5 10.6-7.9 40.2-33.8 30.1-60"/><path fill="#272525" d="M174.9 172.8c9.6 4.6 16.9 2.6 22.2-2.1 1.4-1.3 2.8-3.7 1.9-1.3-3.1 8.4-15.3 10.6-22.7 5.4-1-.8-2.9-2.7-1.4-2m-12.8-65.1c-4.2-8.4-14.2-15.3-23.1-10.6-13.6 7.1-11.2 25.3-4.2 37.9l-1.4.5a.88.88 0 00.7 1.5c.5-.1 7.7-1.3 16.3-2 3.6-.3 13.7-.4 15.4-.3.7-3.8 1.4-16.9-3.7-27m1.8 25c-.4 0-4.8.1-7.3.1.5-4.5.9-10.2-2.4-15.6l-7.4 4.7 3.8-9.2c-9-6.8-17.5-.2-18.6 8.5-2.8-11.9 3.2-19.9 8.5-22.1 6.4-2.6 13.1.3 17.8 7 6.5 9 5.9 24.4 5.6 26.6m48.7-18a38 38 0 00-3-14.2c-3.4-7.8-8.1-13.1-14.8-14.5-6-1.3-12 1.9-14.2 8.8-3 9.3 2.6 26.5 8.8 33.3 2.1-1 8.1-4.3 13.1-6.7s7.7-3.7 9.4-4.6c1.9-1 2.2-1.1 2-1.8s-1.3-.3-1.3-.3m-6.7 2.9c.2-5.4-2.6-10.7-3.6-12.4l-6.7 4.4 3.4-7.9a9.56 9.56 0 00-12.2-.6c-3.7 2.7-3.8 7.5-3.9 7.9a27.71 27.71 0 01-.8-11c1.1-7.3 5.3-10.1 10.4-10.2 6.5-.1 11.9 6 15.2 13.6a42 42 0 013 14 50.32 50.32 0 01-4.8 2.2M175 142.8c-1-.9-1.5-2.2-1.3-2.3a16.31 16.31 0 012.4 1.2 12.85 12.85 0 009 .2c2.9-1.1 3.8-3.1 3.6-4.6-.1-.9-.8-1.5-.6-1.7s1.1.8 1.4 1.4c1 1.8 1.4 4.1-1.5 6.5-1.7 1.4-5 1.9-6.9 1.7a10.41 10.41 0 01-6.1-2.4"/><path fill="#272525" d="M213.8 135.8c-1.2.6-7.8 9.6-11.9 19.2-1.4 3.4-4.8 12.9-12.3 14.8-8.7 2.1-14.1-2-20.9-5.9-5.7-3.3-20.8-9-23.2-8.9a34.93 34.93 0 01-4.2.9c-2.2.2-4.8.1-4.6-.5s2.9 0 6.7-2.4c3.2-2 3.5-3.9 4.3-3.8s.6 1.7-.5 3.5c.5 1.1 17.7 4.9 33.6 2.4 10.6-1.7 21.6-6.8 27.8-15.2 0 0 2.7-3.8 2.1-3.9-2.5-.4-3.6-1.6-3.3-2.2s1.7.4 5.5 0c4.2-.5 5.2-1.8 5.6-1.4.6.5-3.3 2.7-4.7 3.4" class="cls-3"/><path fill="#e5173f" d="M191.9 157.8a7.89 7.89 0 00-4.8 2.1c1 .8 2.1 2.1 1.8 2.7a10.63 10.63 0 00-2.7-1.6 16.4 16.4 0 00-8.2-.4c-5 1.1-5.9 2.5-5.9 2.5s7 5.7 14.5 4.8c7.9-.9 11-8.8 11-8.8a10.2 10.2 0 00-5.7-1.3"/><path fill="#e5173f" stroke="#e5173f" stroke-linecap="round" stroke-linejoin="round" stroke-width=".5" d="M209.37 88.52c-7.48-9.59-15.57-13.94-25.78-10.63-9.4 3-12.53 14.08-12.64 19-.1 3.63.09 6.86.09 6.86s-.4-.81-.9-1.62c-5.78-9.58-15.26-16.05-24.06-16.37-9.1-.32-21.51 5-24.64 21s5.56 30.79 5.56 30.79c-.1-.2-11-5.56-21.8.06 0 0-6.48-14.63-2.54-31.35 5.54-23.18 21.06-34.94 34.58-41h0a31.54 31.54 0 01-3.91-9.26c-1.78-7-1-12.81.93-15.83.91-1.41 3.41-2.31 4.41-.69 1.79 2.92.77 10.88.57 13.91a20.21 20.21 0 002.08 10.18h0a79.59 79.59 0 0116.21-4.2 69.86 69.86 0 0112.8-.48h0c0-10.38 2.32-14 4.73-18 3.82-6.45 8.32-6.94 9.31-5.33 1.2 2-.51 4.84-4.52 10.38s-5.21 8.65-5.32 13.29h0A55.74 55.74 0 01196.61 66a51.44 51.44 0 0127.62 44.6s-4.4.7-6.71 3c0 .1.33-14.12-8.15-25.12"/><path fill="#272525" d="M146.1 69.5c-.5.4-.8 0-1.8-1.2a19.87 19.87 0 01-5.1-14.6c.1-3 1.2-10.9-.6-13.8-1-1.7-3.5-.7-4.4.7-1.9 2.9-2.7 8.8-.9 15.7 1.3 5.1 2.8 7.7 6.7 13.4.5.8 1.6 1.9 1.2 2.3s-1.2-.5-2-1.2a36 36 0 01-7.9-13.6c-2.1-6.7-1-15.1 1.3-18.3a5.55 5.55 0 014.2-2.5c5.4-.2 5.4 6.8 4.8 14.1-.5 6.2-.2 8.8 2.6 14.9.5 1.3 2.3 3.8 1.9 4.1m23-6.7a38.21 38.21 0 01.8-15.2c2.7-9.1 9-14.6 12.6-14.6 3.1 0 7 2.7 1.4 11.1-4.1 6.1-7.4 7.3-8.2 18.1-.1.7.1 3-.4 3s-.8-1.5-.9-2.3c-.3-6.8.3-9.8 5.3-16.6 4-5.5 5.7-8.3 4.5-10.3-1-1.7-5.6-1.1-9.3 5.3-2.6 4.4-5.1 8.4-4.6 21.2 0 .8.2 2.1-.2 2.2s-.9-1.2-1-1.9"/><path fill="#272525" d="M240.7 120.2a14.65 14.65 0 00-13.8-9.8 52.29 52.29 0 00-5.2-21.4c-4.33-8.94-16.93-27.83-45.37-31.58-.15.73-.27 1.51-.38 2.36a56 56 0 0120.35 6.52 51 51 0 0127.7 44.2s-4.4.7-6.7 3a1.49 1.49 0 000 .7c8.8-4.3 17.7-1.2 20.6 7 8.3 22.2-12.8 44.4-26.5 54.7.1-.5.3-3.6-.3-3.6s-1.5 6.2-6.6 11.6a27.93 27.93 0 01-20.2 8.4c-8 0-13.2-2.8-16.5-4s-4.4-2.1-4.8-1.7c-.6.6.2 1.2 1.3 2.2a22 22 0 001.8 1.4c-11.2-.9-27.1-2.5-40.1-6-9.1-2.5-29-10.5-29-30.3 0-9.5 8.5-16.9 19.2-16.9a75 75 0 0111 1.2c.2-.2-.2-.7-.3-.9s-11-5.5-21.8.1c0 0-6.5-14.5-2.6-31.1 5.26-22.24 19.94-33.91 33.12-40.07-.46-.7-.94-1.48-1.41-2.33-8.72 4.16-17.05 10-22.81 17.5-8.5-8.9-13.5-11.9-17.4-13.5-.5-.2-1.9-.8-2-.5s.9 1.1 1.5 1.6c3 2.2 10.6 9 10.6 9a17.53 17.53 0 01-8.5 2.3c-10.6.1-19.9-5.8-20.3-16.8-.5-14.8 17.1-22.6 35-26.2a44.54 44.54 0 00-1.7 6.1c-.1.4-.1 1.1.4 1.2s1.3-1 1.5-1.9C121 9.1 145.2 2.6 154.3 2.6c12.9 0 18.9 11.1 19 18.4.3 13.4-13.5 21-13.5 21s-2.1-8.8-2.5-11.9c-.1-.9-.2-1.4-.7-1.4-.3 0-.4 1-.5 1.5-.8 5.9 2 17.3 4.7 26.5a66 66 0 00-18.52 3.87c.25.81.56 1.67.95 2.6a85.35 85.35 0 0114-3.47 64.61 64.61 0 0111.57-.53c0-.8-.07-1.59-.07-2.37l-4.7-.1c-1.4-4.2-3.3-11.4-3.4-11.7 5.9-3.5 17-12 15.4-25.9-.7-6.4-6.6-19-21.8-19.1-16.1-.1-36.6 14.3-42.9 34.6C95.8 37 71.8 45.5 72.5 63.6 73 77.7 85.3 82.8 94.4 83a22.9 22.9 0 0011.8-3l3.6 4c-4.5 5.6-8.8 15.8-10.3 25.2a57.1 57.1 0 003.3 28.5l.4.9-.8.6c-6.5 5.1-8.3 11.3-7.7 17.6 2.8 29.8 45.3 33.1 52.2 34.1 5.1.8 26.3 2.6 26.3 2.6a34.27 34.27 0 0016.3 1.2c14.6-2.6 18.8-10.8 21.1-14.5 10.6-7.9 40.2-33.8 30.1-60z"/><path fill="#e5173f" d="M218.53 210.33a3.56 3.56 0 01-5.07 0 3.5 3.5 0 01-1-2.54 3.58 3.58 0 116.11 2.54zm-4.72-4.72a3.14 3.14 0 000 4.38 3.08 3.08 0 004.37 0 3.1 3.1 0 00-2.18-5.29 3 3 0 00-2.19.91zm2.11.2a3.15 3.15 0 011.08.19 1 1 0 01.61 1 .88.88 0 01-.38.78 1.72 1.72 0 01-.57.19.94.94 0 01.67.38 1.11 1.11 0 01.22.61v.58a.45.45 0 000 .21v.05H217a.09.09 0 000-.05v-.43c0-.46-.12-.76-.37-.9a1.59 1.59 0 00-.77-.13h-.55v1.55h-.69v-3.94zm.75.62a1.74 1.74 0 00-.84-.15h-.59v1.43h.63a1.86 1.86 0 00.66-.09.61.61 0 00.41-.61.6.6 0 00-.27-.58z"/></svg>